# xmcd
#
# Track frame offsets:
#	150
#	22177
#	58004
#	67292
#	80651
#	108622
#	119101
#	189398
#	211854
#	243449
#	274268
#	283924
#	305496
#
# Disc length: 4544 seconds
#
# Revision: 1
# Processed by: cddbd v1.5.2PL0 Copyright (c) Steve Scherf et al.
# Submitted via: audiograbber 1.83.01
#
DISCID=d411be0d
DTITLE=Grateful Dead - 78-11-18 Uptown Theatre, Chicago IL
DYEAR=1900
DGENRE=
TTITLE0=Jack Straw
TTITLE1=Candyman
TTITLE2=Tuning
TTITLE3=Me and My Uncle
TTITLE4=Big River
TTITLE5=Tuning
TTITLE6=Sugaree
TTITLE7=El Paso
TTITLE8=Stagger Lee
TTITLE9=It's All Over Now
TTITLE10=Tuning
TTITLE11=From The Heart Of Me
TTITLE12=The Music Never Stopped
EXTD=
EXTT0=
EXTT1=
EXTT2=
EXTT3=
EXTT4=
EXTT5=
EXTT6=
EXTT7=
EXTT8=
EXTT9=
EXTT10=
EXTT11=
EXTT12=
PLAYORDER=
